<svg width="231" height="271" viewBox="0 0 231 271" fill="none" xmlns="http://www.w3.org/2000/svg">
<g clip-path="url(#clip0)">
<path d="M230.592 267.73C222.656 257.089 212.144 249.323 204.738 244.663C198.376 240.671 193.235 238.273 191.255 237.401C191.052 237.224 190.807 237.074 190.55 236.979L173.527 231.202C181.353 231.924 187.891 231.583 193.9 230.479C225.573 224.689 225.464 205.246 220.676 166.619C208.427 67.8794 204.168 40.1118 176.416 31.5009C170.271 17.726 148.69 0 115.498 0C66.0565 0 25.974 35.711 25.974 79.774C25.974 80.1283 25.974 80.4825 25.9876 80.8367H25.974C25.974 80.8367 25.3365 124.355 10.2666 166.633C-4.88475 209.143 19.3275 227.482 47.175 230.302C51.4614 230.738 55.4086 230.82 59.1116 230.657L41.3288 236.692C41.1254 236.761 40.9219 236.856 40.7456 236.979L40.637 237.019C40.3793 237.128 34.2889 239.622 26.2724 244.649C18.8528 249.309 8.34044 257.089 0.405327 267.73C-0.272888 268.629 -0.0829878 269.91 0.812256 270.591C1.7075 271.272 2.98254 271.082 3.66076 270.182C11.2025 260.073 21.2401 252.647 28.3342 248.178C34.3025 244.431 39.2399 242.102 41.2203 241.216C52.221 246.162 64.2389 249.895 76.9215 252.307C88.9531 254.582 101.921 255.74 115.485 255.74C129.049 255.74 142.017 254.582 154.048 252.307C166.744 249.895 178.749 246.162 189.749 241.216C191.73 242.102 196.667 244.431 202.635 248.178C209.73 252.634 219.781 260.073 227.309 270.182C227.702 270.714 228.326 271 228.937 271C229.357 271 229.791 270.864 230.157 270.591C231.08 269.91 231.256 268.629 230.592 267.73ZM56.1953 159.671C52.4922 151.564 50.2813 143.13 49.6302 134.587L46.3747 91.5868C46.1713 88.9436 46.1577 86.3003 46.334 83.698C74.1273 82.8669 100.32 75.6593 123.528 63.5058C120.056 65.8084 116.489 67.9748 112.813 69.9641C106.071 73.6428 99.0178 76.7901 91.7338 79.338C84.4633 81.8995 76.9758 83.8751 69.3527 85.2376C68.7287 85.3466 68.2947 85.9325 68.3896 86.5728C68.471 87.2268 69.0678 87.6901 69.7189 87.6083C77.5184 86.5865 85.25 84.9379 92.8053 82.6761C100.374 80.4144 107.767 77.5259 114.902 74.0651C127.069 68.1656 138.463 60.5492 148.677 51.5295C158.172 68.7787 170.732 84.7607 184.527 97.9497L181.394 135.132C180.675 143.62 178.423 151.986 174.693 160.025C171.031 167.914 166.148 175.04 160.179 181.212C159.976 181.43 159.759 181.634 159.555 181.852C159.487 181.92 159.42 181.988 159.352 182.056C159.216 182.193 159.067 182.343 158.931 182.479C158.85 182.561 158.769 182.642 158.687 182.71C158.552 182.833 158.429 182.969 158.294 183.092C158.212 183.174 158.117 183.255 158.036 183.337C157.9 183.46 157.778 183.582 157.643 183.705C157.561 183.787 157.466 183.868 157.385 183.95C157.249 184.073 157.127 184.196 156.992 184.318C156.91 184.4 156.815 184.482 156.734 184.55C156.598 184.672 156.463 184.795 156.327 184.918C156.246 184.986 156.164 185.068 156.083 185.136C155.934 185.272 155.784 185.395 155.635 185.531C155.567 185.599 155.486 185.653 155.418 185.721C155.242 185.871 155.065 186.021 154.889 186.171C154.848 186.212 154.794 186.253 154.754 186.294C154.306 186.675 153.845 187.057 153.384 187.425C153.356 187.452 153.316 187.479 153.275 187.506C153.085 187.656 152.882 187.82 152.692 187.97C152.637 188.01 152.583 188.051 152.529 188.106C152.353 188.242 152.176 188.378 152 188.515C151.932 188.569 151.878 188.61 151.81 188.651C151.634 188.773 151.471 188.91 151.295 189.032C151.227 189.073 151.173 189.128 151.105 189.169C150.928 189.291 150.752 189.427 150.589 189.55C150.535 189.591 150.467 189.632 150.413 189.673C150.223 189.809 150.047 189.932 149.857 190.068C149.803 190.109 149.762 190.136 149.708 190.177C149.504 190.327 149.287 190.463 149.084 190.613C149.056 190.626 149.029 190.654 149.002 190.667C148.026 191.335 147.035 191.962 146.045 192.575L146.032 192.588C145.787 192.738 145.557 192.875 145.313 193.024C145.286 193.038 145.272 193.052 145.245 193.065C145.014 193.202 144.784 193.324 144.567 193.46C144.54 193.474 144.512 193.488 144.485 193.501C144.255 193.638 144.024 193.76 143.794 193.883C143.766 193.896 143.753 193.91 143.726 193.924C143.482 194.06 143.237 194.183 142.993 194.319C142.98 194.319 142.98 194.332 142.966 194.332C141.176 195.286 139.344 196.158 137.5 196.921C137.242 197.03 136.971 197.139 136.699 197.248C129.89 199.96 122.755 201.377 115.553 201.377C108.296 201.377 101.107 199.946 94.2703 197.207C93.999 197.098 93.7413 196.989 93.47 196.88C91.6117 196.104 89.7805 195.232 87.9764 194.264C87.9629 194.264 87.9629 194.251 87.9493 194.251C87.7052 194.114 87.461 193.992 87.2169 193.856C87.1897 193.842 87.1762 193.828 87.149 193.815C86.9184 193.692 86.6878 193.556 86.4573 193.42C86.4301 193.406 86.403 193.392 86.3894 193.379C86.1588 193.242 85.9282 193.106 85.6976 192.97C85.6841 192.956 85.657 192.943 85.6434 192.929C85.3992 192.779 85.1551 192.643 84.9109 192.493C84.9109 192.493 84.9109 192.493 84.8974 192.493C83.8936 191.88 82.9034 191.24 81.9268 190.572C81.8996 190.558 81.8725 190.531 81.8454 190.517C81.6419 190.381 81.4385 190.231 81.2214 190.081C81.1672 190.041 81.1265 190.013 81.0722 189.972C80.8823 189.836 80.706 189.714 80.5161 189.577C80.4618 189.536 80.394 189.496 80.3397 189.441C80.1634 189.318 79.9871 189.182 79.8107 189.06C79.7429 189.019 79.6887 188.964 79.6208 188.91C79.4445 188.787 79.2817 188.651 79.1054 188.528C79.0376 188.474 78.9833 188.433 78.9155 188.378C78.7392 188.242 78.5628 188.106 78.3865 187.97C78.3322 187.929 78.278 187.888 78.2237 187.833C78.0203 187.684 77.8304 187.52 77.6405 187.37C77.6133 187.343 77.5726 187.316 77.5455 187.288C77.0843 186.921 76.6231 186.539 76.1755 186.144C76.1212 186.103 76.0806 186.062 76.0263 186.021C75.85 185.871 75.6736 185.722 75.5109 185.572C75.443 185.504 75.3616 185.449 75.2938 185.381C75.1446 185.258 74.9954 185.122 74.8598 184.986C74.7784 184.918 74.697 184.836 74.6156 184.768C74.48 184.645 74.3443 184.523 74.2087 184.4C74.1273 184.318 74.0323 184.236 73.951 184.155C73.8153 184.032 73.6932 183.909 73.5576 183.787C73.4626 183.705 73.3813 183.623 73.2999 183.542C73.1642 183.419 73.0422 183.296 72.9065 183.174C72.8251 183.092 72.7302 183.01 72.6488 182.928C72.5131 182.806 72.3911 182.67 72.2554 182.547C72.174 182.465 72.0927 182.383 72.0113 182.302C71.8621 182.165 71.7264 182.016 71.5908 181.879C71.523 181.811 71.4551 181.743 71.3873 181.675C71.1838 181.457 70.9668 181.253 70.7634 181.035C64.7001 174.808 59.8305 167.614 56.1953 159.671ZM153.302 248.287C141.528 250.522 128.805 251.653 115.498 251.653C102.192 251.653 89.4685 250.522 77.6947 248.287C66.789 246.216 56.3988 243.151 46.7681 239.159L86.3352 225.724C86.9591 225.506 87.4339 225.002 87.6238 224.389C87.6238 224.389 87.6238 224.389 87.6238 224.375C87.6373 224.335 87.6509 224.294 87.6509 224.253C87.6509 224.239 87.6509 224.239 87.6509 224.226C87.6645 224.171 87.6645 224.13 87.678 224.076L91.0284 200.3C91.354 200.436 91.6795 200.573 92.005 200.709C92.0864 200.75 92.1678 200.777 92.2492 200.804C92.5747 200.941 92.9003 201.077 93.2258 201.199C93.5514 201.322 93.8905 201.458 94.216 201.581C94.2974 201.608 94.3788 201.635 94.4602 201.676C101.242 204.17 108.336 205.464 115.498 205.464C122.267 205.464 128.968 204.306 135.411 202.071C135.763 201.949 136.13 201.813 136.482 201.69C136.537 201.676 136.577 201.649 136.632 201.635C136.984 201.513 137.337 201.377 137.676 201.24C138.015 201.104 138.354 200.968 138.693 200.832C138.761 200.804 138.843 200.777 138.91 200.736C139.25 200.6 139.589 200.45 139.914 200.314L143.265 224.076C143.265 224.117 143.278 224.171 143.292 224.212C143.292 224.226 143.305 224.239 143.305 224.253C143.305 224.28 143.319 224.307 143.332 224.335C143.332 224.348 143.346 224.375 143.346 224.389C143.36 224.416 143.359 224.43 143.373 224.457C143.387 224.484 143.387 224.498 143.4 224.525C143.414 224.539 143.414 224.566 143.427 224.58C143.441 224.607 143.441 224.621 143.454 224.648C143.468 224.662 143.468 224.675 143.482 224.702C143.495 224.73 143.509 224.757 143.522 224.771C143.536 224.784 143.536 224.798 143.549 224.811C143.563 224.839 143.577 224.866 143.59 224.893C143.59 224.907 143.604 224.907 143.604 224.92C143.848 225.288 144.214 225.574 144.648 225.724L184.215 239.159C174.598 243.151 164.208 246.216 153.302 248.287Z" fill="#281104"/>
<path d="M46.2 87.7447C46.2 88.0035 46.2 88.2624 46.2136 88.5213C46.2136 88.5622 46.2136 88.603 46.2136 88.6439C46.2271 88.9437 46.2271 89.2298 46.2407 89.5295C46.2407 89.5977 46.2407 89.6794 46.2543 89.7475C46.2678 89.9792 46.2814 90.2108 46.295 90.4424C46.295 90.5242 46.3085 90.6059 46.3085 90.7013C46.3221 91.001 46.3492 91.3008 46.3628 91.5869L49.6182 134.587C50.2693 143.13 52.4803 151.564 56.1833 159.671C59.8186 167.614 64.7017 174.808 70.67 181.048C83.2577 194.155 99.1822 201.377 115.514 201.377C131.736 201.377 147.593 194.224 160.14 181.225C166.108 175.053 170.992 167.927 174.654 160.039C178.384 152 180.649 143.634 181.355 135.146L184.488 97.9634C170.707 84.7608 158.16 68.7924 148.665 51.5432C138.464 60.5629 127.07 68.1793 114.89 74.0789C107.755 77.5396 100.362 80.4281 92.7934 82.6898C85.2245 84.9516 77.5064 86.6002 69.7069 87.622C69.0559 87.7038 68.459 87.2405 68.3776 86.5866C68.2963 85.9462 68.7303 85.3603 69.3407 85.2513C76.9503 83.8888 84.4513 81.9132 91.7218 79.3517C98.9923 76.7902 106.046 73.6565 112.801 69.9778C116.463 67.9749 120.044 65.8221 123.517 63.5195C100.308 75.6866 74.1153 82.8806 46.3221 83.7117C46.3085 84.0114 46.2814 84.2976 46.2678 84.5973C46.2678 84.6654 46.2678 84.7336 46.2543 84.8017C46.2407 85.0469 46.2271 85.3058 46.2271 85.5511C46.2271 85.6056 46.2271 85.6601 46.2271 85.7146C46.2136 86.0143 46.2136 86.3141 46.2136 86.6138C46.2136 86.6547 46.2136 86.7092 46.2136 86.7501C46.2136 87.0089 46.2136 87.2542 46.2136 87.513C46.2 87.5948 46.2 87.6765 46.2 87.7447Z" fill="#FFE7D7"/>
<path d="M48.8044 166.974C50.8797 166.974 52.8465 166.497 54.6099 165.666C53.9724 164.467 53.362 163.24 52.7923 162.014C51.585 162.586 50.2286 162.9 48.8044 162.9C43.5685 162.9 39.3093 158.622 39.3093 153.362C39.3093 148.784 42.5376 144.956 46.824 144.029C46.5527 142.694 46.3221 141.345 46.1322 139.996C39.9333 141.25 35.2401 146.768 35.2401 153.349C35.2401 160.87 41.3304 166.974 48.8044 166.974Z" fill="#FBB03B"/>
<path d="M184.203 144.043C188.476 144.969 191.677 148.798 191.677 153.362C191.677 158.622 187.418 162.9 182.182 162.9C180.771 162.9 179.429 162.586 178.221 162.028C177.638 163.268 177.028 164.48 176.39 165.679C178.14 166.51 180.107 166.974 182.169 166.974C189.642 166.974 195.733 160.856 195.733 153.349C195.733 146.768 191.067 141.263 184.881 139.996C184.705 141.359 184.474 142.694 184.203 144.043Z" fill="#FBB03B"/>
<path d="M184.23 239.159L174.098 235.711L184.23 239.159Z" fill="white"/>
<path d="M202.651 248.178C196.682 244.431 191.745 242.101 189.765 241.216C178.764 246.162 166.746 249.895 154.063 252.307C142.032 254.582 129.064 255.74 115.5 255.74C101.936 255.74 88.9682 254.582 76.9367 252.307C64.2405 249.895 52.2361 246.162 41.2355 241.216C39.2551 242.101 34.3177 244.431 28.3494 248.178C21.5401 252.456 12.0315 259.473 4.61186 268.956H226.388C218.968 259.473 209.46 252.456 202.651 248.178Z" fill="#F2F2F2"/>
<path d="M185.248 137.298C188.218 137.871 190.918 139.26 193.088 141.222C195.543 138.402 197.021 134.71 197.021 130.663C197.021 123.946 192.911 118.183 187.092 115.785L185.424 135.486C185.37 136.099 185.315 136.699 185.248 137.298Z" fill="#FFE7D7"/>
<path d="M45.7931 137.285C45.7117 136.495 45.6303 135.691 45.5761 134.9L44.1247 115.703C38.1835 118.06 33.9921 123.864 33.9921 130.663C33.9921 134.71 35.4707 138.402 37.9258 141.222C40.0825 139.247 42.7954 137.857 45.7931 137.285Z" fill="#EFD6C5"/>
<path d="M69.3407 85.2512C76.9638 83.8887 84.4513 81.9131 91.7218 79.3516C98.9923 76.7901 106.046 73.6563 112.801 69.9776C116.463 67.9747 120.044 65.822 123.516 63.5194C100.308 75.6865 74.1153 82.8804 46.3221 83.7115C46.1457 86.3139 46.1593 88.9435 46.3628 91.6004L49.6182 134.601C50.2693 143.144 52.4803 151.577 56.1833 159.684C59.8186 167.628 64.7017 174.822 70.67 181.062C70.8735 181.28 71.0905 181.498 71.294 181.702C71.3618 181.77 71.4296 181.838 71.4974 181.906C71.6331 182.056 71.7823 182.193 71.9179 182.329C71.9993 182.411 72.0807 182.492 72.1621 182.574C72.2977 182.697 72.4198 182.833 72.5554 182.956C72.6368 183.037 72.7318 183.119 72.8132 183.201C72.9488 183.323 73.0709 183.446 73.2065 183.569C73.2879 183.65 73.3829 183.732 73.4642 183.814C73.5999 183.937 73.722 184.059 73.8576 184.182C73.939 184.264 74.0339 184.345 74.1153 184.427C74.251 184.55 74.3866 184.672 74.5223 184.795C74.6036 184.863 74.685 184.945 74.7664 185.013C74.9156 185.149 75.0648 185.272 75.2005 185.408C75.2683 185.476 75.3497 185.531 75.4175 185.599C75.5938 185.749 75.7702 185.899 75.9329 186.048C75.9872 186.089 76.0279 186.13 76.0822 186.171C76.5433 186.553 76.991 186.934 77.4521 187.316C77.4793 187.343 77.52 187.37 77.5471 187.397C77.737 187.561 77.9405 187.711 78.1304 187.861C78.1846 187.901 78.2389 187.942 78.2931 187.997C78.4695 188.133 78.6458 188.269 78.8221 188.406C78.89 188.46 78.9442 188.501 79.012 188.555C79.1884 188.692 79.3512 188.814 79.5275 188.937C79.5953 188.991 79.6496 189.032 79.7174 189.087C79.8937 189.209 80.0701 189.346 80.2464 189.468C80.3006 189.509 80.3685 189.55 80.4227 189.605C80.6126 189.741 80.789 189.863 80.9789 190C81.0331 190.041 81.0738 190.068 81.1281 190.109C81.3315 190.259 81.535 190.395 81.752 190.545C81.7792 190.558 81.8063 190.586 81.8334 190.599C82.81 191.267 83.8002 191.907 84.804 192.52C84.804 192.52 84.804 192.52 84.8176 192.52C85.0617 192.67 85.3059 192.82 85.55 192.956C85.5636 192.97 85.5907 192.984 85.6043 192.997C85.8349 193.133 86.0655 193.27 86.2961 193.406C86.3232 193.42 86.3503 193.433 86.3639 193.447C86.5945 193.583 86.8251 193.706 87.0557 193.842C87.0828 193.856 87.0964 193.869 87.1235 193.883C87.3676 194.019 87.6118 194.155 87.856 194.278C87.8695 194.278 87.8695 194.292 87.8831 194.292C89.6871 195.259 91.5183 196.131 93.3766 196.908C93.6479 197.017 93.9056 197.126 94.1769 197.235C99.0058 199.169 104.011 200.45 109.084 201.036C81.2366 192.82 59.9813 164.739 57.7025 134.778L55.8307 110.089C55.3423 103.686 59.9406 98.0586 66.2752 97.2275C99.25 92.8675 128.305 76.0543 148.624 51.6248C148.61 51.6112 148.61 51.5976 148.597 51.5703C138.397 60.59 127.003 68.2064 114.822 74.106C107.687 77.5667 100.294 80.4552 92.7255 82.7169C85.1567 84.9787 77.4386 86.6273 69.6391 87.6491C68.988 87.7309 68.3912 87.2677 68.3098 86.6137C68.2962 85.946 68.7167 85.3602 69.3407 85.2512Z" fill="#EFD6C5"/>
<path d="M79.4934 116C72.0355 116 66 121.558 66 128.425C66 130.396 67.7415 132 69.8819 132H89.1182C91.2585 132 93 130.396 93 128.425C92.9867 121.558 86.938 116 79.4934 116Z" fill="#281104"/>
<path d="M95.3877 109.08C95.101 112.214 92.0807 110.09 85.0836 109.45C66.0915 107.713 60.8488 111.42 61.0685 109.019C61.2882 106.617 71.1224 101.853 82.6177 102.904C94.1129 103.955 95.6074 106.678 95.3877 109.08Z" fill="#281104"/>
<path d="M153 126C145.39 126 138.681 125.391 138.681 127.584C138.681 129.778 140.458 131.563 142.642 131.563H162.27C164.454 131.563 166.23 129.778 166.23 127.584C166.23 125.39 160.596 126 153 126Z" fill="#281104"/>
<path d="M137.825 115.656C138.334 118.762 141.196 116.429 148.13 115.293C166.95 112.208 172.443 115.532 172.053 113.152C171.663 110.772 161.514 106.72 150.123 108.587C138.719 110.457 137.435 113.277 137.825 115.656Z" fill="#281104"/>
<path d="M139.524 160.968C138.79 160.728 137.99 160.769 137.262 161.118C137.209 161.137 137.158 161.17 137.119 161.187C135.402 162.131 133.46 162.604 131.504 162.408C126.32 161.858 119.372 162.311 117.667 165.759C117.452 166.192 116.858 166.253 116.547 165.874C114.177 162.844 107.282 163.826 102.317 165.404C100.443 166.008 98.4574 165.924 96.5714 165.35C96.5146 165.329 96.4592 165.321 96.4174 165.311C95.6474 165.117 94.842 165.24 94.1723 165.624C93.3989 166.06 93.3767 167.171 94.134 167.641L98.8375 170.555C100.774 171.754 102.827 172.762 104.969 173.569C109.18 175.136 113.722 176.615 118.163 176.173C122.615 175.702 126.748 173.333 130.553 170.942C132.487 169.73 134.279 168.327 135.944 166.745L139.957 162.937C140.618 162.335 140.371 161.251 139.524 160.968Z" fill="#FF7BAC"/>
<path d="M126.344 144.485C125.912 144.531 125.5 144.63 125.107 144.782C123.115 141.966 119.703 140.288 116.048 140.678C112.393 141.068 109.411 143.428 108.058 146.6C107.642 146.535 107.218 146.525 106.786 146.571C104.048 146.864 102.073 149.321 102.367 152.072L107.317 151.544L112.267 151.016L121.924 149.985L126.874 149.457L131.824 148.929C131.517 146.181 129.068 144.195 126.344 144.485Z" fill="#EFD4C5"/>
<path d="M117.928 138.143V122.556C117.928 121.807 117.318 121.194 116.572 121.194C115.826 121.194 115.215 121.807 115.215 122.556V138.143C115.663 138.102 116.11 138.089 116.572 138.089C117.033 138.089 117.48 138.116 117.928 138.143Z" fill="#EFD4C5"/>
<path d="M144.677 225.724C143.944 225.479 143.415 224.839 143.32 224.076L139.97 200.314C139.631 200.791 130.326 213.271 102.058 217.222L73.3422 247.402C64.0235 245.385 55.1253 242.619 46.7697 239.159L86.3368 225.724C87.0692 225.479 87.5982 224.839 87.6932 224.076L91.0436 200.314C98.8566 203.693 107.117 205.464 115.486 205.464H115.5C107.117 205.464 98.843 203.693 91.03 200.3L87.6796 224.076C87.5711 224.839 87.0421 225.479 86.3232 225.724L46.7561 239.159C56.3868 243.151 66.7771 246.216 77.6827 248.287C89.4566 250.522 102.18 251.653 115.486 251.653C128.793 251.653 141.516 250.522 153.29 248.287C164.196 246.216 174.573 243.151 184.217 239.159L144.677 225.724Z" fill="#FFE7D7"/>
<path d="M102.058 217.222L73.3422 247.402C64.0235 245.385 55.1253 242.619 46.7697 239.159L86.3368 225.724C87.0692 225.479 87.5983 224.839 87.6932 224.076L91.0436 200.314C98.8566 203.693 107.117 205.464 115.486 205.464C123.883 205.464 132.157 203.693 139.97 200.3C139.97 200.3 130.868 213.203 102.058 217.222Z" fill="#EFD6C5"/>
</g>
<defs>
<clipPath id="clip0">
<rect width="231" height="271" fill="white"/>
</clipPath>
</defs>
</svg>
