<svg width="20" height="44" viewBox="0 0 20 44" fill="none" xmlns="http://www.w3.org/2000/svg">
<path d="M1.08056 20.3186C1.51992 19.8845 2.11297 19.6417 2.73056 19.6429H3.51628C4.66201 19.6416 5.76046 19.1859 6.57061 18.3758C7.38077 17.5656 7.83646 16.4672 7.83771 15.3214V4.71429C7.83917 3.46443 8.33632 2.26617 9.2201 1.38239C10.1039 0.498605 11.3021 0.00145562 12.552 0L17.2058 0C17.5309 0.00128054 17.8525 0.067006 18.152 0.193375C18.4516 0.319743 18.7231 0.504247 18.9509 0.736214C19.1692 0.954756 19.3413 1.21499 19.457 1.50142C19.5727 1.78786 19.6295 2.09464 19.6242 2.4035C19.6121 3.02045 19.3585 3.60804 18.9179 4.04009C18.4774 4.47214 17.8849 4.7142 17.2679 4.71429H14.125C13.7082 4.71429 13.3085 4.87985 13.0138 5.17455C12.7191 5.46925 12.5536 5.86895 12.5536 6.28571V15.3214C12.5552 17.6013 11.6918 19.7969 10.1375 21.4649L9.64014 22L10.1375 22.5351C11.6918 24.2031 12.5552 26.3987 12.5536 28.6786V37.7143C12.5536 38.1311 12.7191 38.5308 13.0138 38.8255C13.3085 39.1202 13.7082 39.2857 14.125 39.2857H17.2058C17.5309 39.2872 17.8524 39.353 18.1519 39.4793C18.4514 39.6057 18.723 39.7901 18.9509 40.0219C19.1692 40.2405 19.3413 40.5007 19.457 40.7871C19.5727 41.0736 19.6295 41.3804 19.6242 41.6892C19.6121 42.3063 19.3584 42.894 18.9176 43.3261C18.4769 43.7582 17.8843 44.0001 17.2671 44H12.5528C11.3029 43.9985 10.1047 43.5014 9.22089 42.6176C8.3371 41.7338 7.83995 40.5356 7.83849 39.2857V28.6786C7.83725 27.5328 7.38155 26.4344 6.5714 25.6242C5.76124 24.8141 4.6628 24.3584 3.51706 24.3571H2.79342C2.46835 24.3557 2.14678 24.2899 1.84727 24.1635C1.54776 24.0372 1.27623 23.8528 1.04835 23.6209C0.830025 23.4024 0.6579 23.1422 0.542219 22.8557C0.426538 22.5693 0.369669 22.2625 0.37499 21.9536C0.385309 21.3369 0.638914 20.7492 1.08056 20.3186Z" fill="white"/>
</svg>
