<svg width="20" height="44" viewBox="0 0 20 44" fill="none" xmlns="http://www.w3.org/2000/svg">
<path d="M18.9194 20.3186C18.4801 19.8845 17.887 19.6417 17.2694 19.6429H16.4837C15.338 19.6416 14.2395 19.1859 13.4294 18.3758C12.6192 17.5656 12.1635 16.4672 12.1623 15.3214V4.71429C12.1608 3.46443 11.6637 2.26617 10.7799 1.38239C9.89611 0.498605 8.69786 0.00145562 7.448 0L2.79421 0C2.46912 0.00128054 2.1475 0.067006 1.84796 0.193375C1.54843 0.319743 1.27692 0.504247 1.04914 0.736214C0.830818 0.954756 0.658694 1.21499 0.543014 1.50142C0.427334 1.78786 0.370461 2.09464 0.375784 2.4035C0.38792 3.02045 0.641502 3.60804 1.08207 4.04009C1.52265 4.47214 2.11508 4.7142 2.73214 4.71429H5.875C6.29177 4.71429 6.69147 4.87985 6.98617 5.17455C7.28087 5.46925 7.44643 5.86895 7.44643 6.28571V15.3214C7.44475 17.6013 8.30823 19.7969 9.8625 21.4649L10.3599 22L9.8625 22.5351C8.30823 24.2031 7.44475 26.3987 7.44643 28.6786V37.7143C7.44643 38.1311 7.28087 38.5308 6.98617 38.8255C6.69147 39.1202 6.29177 39.2857 5.875 39.2857H2.79421C2.46914 39.2872 2.14758 39.353 1.84806 39.4793C1.54855 39.6057 1.27702 39.7901 1.04914 40.0219C0.830818 40.2405 0.658694 40.5007 0.543014 40.7871C0.427334 41.0736 0.370461 41.3804 0.375784 41.6892C0.387923 42.3063 0.641613 42.894 1.08235 43.3261C1.5231 43.7582 2.11572 44.0001 2.73293 44H7.44722C8.69708 43.9985 9.89533 43.5014 10.7791 42.6176C11.6629 41.7338 12.1601 40.5356 12.1615 39.2857V28.6786C12.1628 27.5328 12.6184 26.4344 13.4286 25.6242C14.2388 24.8141 15.3372 24.3584 16.4829 24.3571H17.2066C17.5317 24.3557 17.8532 24.2899 18.1527 24.1635C18.4522 24.0372 18.7238 23.8528 18.9517 23.6209C19.17 23.4024 19.3421 23.1422 19.4578 22.8557C19.5735 22.5693 19.6303 22.2625 19.625 21.9536C19.6147 21.3369 19.3611 20.7492 18.9194 20.3186Z" fill="white"/>
</svg>
