<svg width="70" height="73" viewBox="0 0 70 73" fill="none" xmlns="http://www.w3.org/2000/svg">
<path d="M7 0C3.1739 0 0 3.1739 0 7V66C0 69.8261 3.1739 73 7 73H63C66.8261 73 70 69.8261 70 66V7C70 3.1739 66.8261 0 63 0H7ZM7 6H63C63.6059 6 64 6.39415 64 7V66C64 66.6058 63.6059 67 63 67H7C6.3941 67 6 66.6058 6 66V7C6 6.39415 6.3941 6 7 6ZM35 14C31.6863 14 29 16.6863 29 20C29 23.3137 31.6863 26 35 26C38.3137 26 41 23.3137 41 20C41 16.6863 38.3137 14 35 14ZM35 23C29 23 22 25 22 33H48C48 25 41 23 35 23ZM15 39C13.3432 39 12 40.3432 12 42C12 43.6569 13.3432 45 15 45H55C56.6569 45 58 43.6569 58 42C58 40.3432 56.6569 39 55 39H15ZM18 51C16.3432 51 15 52.3432 15 54C15 55.6569 16.3432 57 18 57H52C53.6569 57 55 55.6569 55 54C55 52.3432 53.6569 51 52 51H18Z" fill="white"/>
</svg>
