<svg width="80" height="57" viewBox="0 0 80 57" fill="none" xmlns="http://www.w3.org/2000/svg">
<path d="M8.18182 0C3.69627 0 0 3.69627 0 8.18182V48.1819C0 52.6674 3.69627 56.3637 8.18182 56.3637H71.8182C76.3037 56.3637 80 52.6674 80 48.1819V8.18182C80 3.69627 76.3037 0 71.8182 0H8.18182ZM8.18182 5.45455H71.8182C73.3763 5.45455 74.5455 6.62373 74.5455 8.18182V48.1819C74.5455 49.74 73.3763 50.9091 71.8182 50.9091H8.18182C6.62373 50.9091 5.45455 49.74 5.45455 48.1819V8.18182C5.45455 6.62373 6.62373 5.45455 8.18182 5.45455ZM67.6705 10.8239C66.996 10.8583 66.3583 11.1417 65.8807 11.6193L41.9035 33.7501C40.7395 34.824 39.1992 34.8225 38.0398 33.7501L14.1193 11.6193C13.8539 11.3696 13.5413 11.1757 13.1997 11.0488C12.8582 10.922 12.4947 10.8648 12.1307 10.8807C11.5892 10.9009 11.0659 11.0819 10.6276 11.4006C10.1894 11.7194 9.85601 12.1615 9.67007 12.6706C9.48413 13.1796 9.45404 13.7325 9.58364 14.2587C9.71324 14.7849 9.99665 15.2605 10.3977 15.625L24.3465 28.5228L10.4545 40.6535C10.1825 40.89 9.95978 41.1778 9.79922 41.5005C9.63866 41.8232 9.5434 42.1744 9.51891 42.5341C9.49442 42.8937 9.54118 43.2546 9.6565 43.5961C9.77182 43.9376 9.95344 44.253 10.1909 44.5241C10.4284 44.7953 10.7171 45.0169 11.0405 45.1762C11.3638 45.3355 11.7154 45.4294 12.0751 45.4525C12.4348 45.4756 12.7955 45.4275 13.1366 45.3108C13.4777 45.1942 13.7923 45.0113 14.0625 44.7728L28.3807 32.2444L34.3465 37.7557C37.5001 40.6723 42.4427 40.6945 45.5965 37.7839L51.5909 32.2442L65.9375 44.7725C66.2077 45.011 66.5223 45.1939 66.8634 45.3106C67.2045 45.4272 67.5652 45.4753 67.9249 45.4522C68.2846 45.4291 68.6362 45.3353 68.9596 45.1759C69.2829 45.0166 69.5716 44.795 69.8091 44.5239C70.0466 44.2527 70.2282 43.9374 70.3435 43.5959C70.4588 43.2544 70.5056 42.8935 70.4811 42.5338C70.4566 42.1742 70.3613 41.823 70.2008 41.5002C70.0402 41.1775 69.8175 40.8897 69.5455 40.6532L55.625 28.5225L69.5738 15.6248C70.0076 15.2555 70.3149 14.7597 70.4526 14.2069C70.5903 13.6542 70.5514 13.0721 70.3415 12.5426C70.1315 12.013 69.761 11.5625 69.282 11.2542C68.803 10.9459 68.2394 10.7953 67.6705 10.8236V10.8239Z" fill="white"/>
</svg>
