<svg width="33" height="32" viewBox="0 0 33 32" fill="none" xmlns="http://www.w3.org/2000/svg">
<path fill-rule="evenodd" clip-rule="evenodd" d="M16.4903 0C7.65033 0 0.490326 7.16 0.490326 16C0.490326 23.08 5.07033 29.06 11.4303 31.18C12.2303 31.32 12.5303 30.84 12.5303 30.42C12.5303 30.04 12.5103 28.78 12.5103 27.44C8.49033 28.18 7.45033 26.46 7.13033 25.56C6.95033 25.1 6.17033 23.68 5.49033 23.3C4.93033 23 4.13033 22.26 5.47033 22.24C6.73033 22.22 7.63033 23.4 7.93033 23.88C9.37033 26.3 11.6703 25.62 12.5903 25.2C12.7303 24.16 13.1503 23.46 13.6103 23.06C10.0503 22.66 6.33033 21.28 6.33033 15.16C6.33033 13.42 6.95033 11.98 7.97033 10.86C7.81033 10.46 7.25033 8.82 8.13033 6.62C8.13033 6.62 9.47033 6.2 12.5303 8.26C13.8103 7.9 15.1703 7.72 16.5303 7.72C17.8903 7.72 19.2503 7.9 20.5303 8.26C23.5903 6.18 24.9303 6.62 24.9303 6.62C25.8103 8.82 25.2503 10.46 25.0903 10.86C26.1103 11.98 26.7303 13.4 26.7303 15.16C26.7303 21.3 22.9903 22.66 19.4303 23.06C20.0103 23.56 20.5103 24.52 20.5103 26.02C20.5103 28.16 20.4903 29.88 20.4903 30.42C20.4903 30.84 20.7903 31.34 21.5903 31.18C27.9103 29.06 32.4903 23.06 32.4903 16C32.4903 7.16 25.3303 0 16.4903 0Z" fill="white"/>
</svg>
