<svg id="Layer_1" data-name="Layer 1" xmlns="http://www.w3.org/2000/svg" xmlns:xlink="http://www.w3.org/1999/xlink" viewBox="0 0 560 560"><defs><linearGradient id="linear-gradient" x1="107.43" y1="128.45" x2="107.43" y2="292.1" gradientUnits="userSpaceOnUse"><stop offset="0" stop-color="#1a00ff"/><stop offset="1" stop-color="#f9007d"/></linearGradient><linearGradient id="linear-gradient-2" x1="452.57" y1="128.45" x2="452.57" y2="292.1" xlink:href="#linear-gradient"/></defs><title>04_2</title><path d="M184.86,464.86a29.88,29.88,0,0,1-21.21-8.79L8.79,301.21a30,30,0,0,1,0-42.42L163.65,103.93a30,30,0,0,1,43,.6c11.24,11.87,10.53,30.71-1,42.27L79.5,272.93a10,10,0,0,0,0,14.14L206.07,413.65a30,30,0,0,1-21.21,51.21Z" style="fill:url(#linear-gradient)"/><path d="M375.14,464.86a29.88,29.88,0,0,0,21.21-8.79L551.21,301.21a30,30,0,0,0,0-42.42L396.35,103.93a30,30,0,0,0-43,.6c-11.24,11.87-10.53,30.71,1,42.27L480.5,272.93a10,10,0,0,1,0,14.14L353.93,413.65a30,30,0,0,0,21.21,51.21Z" style="fill:url(#linear-gradient-2)"/></svg>