<svg width="139" height="238" viewBox="0 0 139 238" fill="none" xmlns="http://www.w3.org/2000/svg">
<path d="M20.1615 237.839C22.6946 237.842 25.2033 237.345 27.5434 236.375C29.8835 235.405 32.0086 233.982 33.7965 232.188L133.349 132.635C136.965 129.018 138.996 124.114 138.996 119C138.996 113.886 136.965 108.982 133.349 105.365L33.7965 5.81214C31.9737 3.99025 29.8043 2.55218 27.4164 1.58286C25.0285 0.613554 22.4705 0.132669 19.8936 0.168625C17.3167 0.204582 14.7732 0.756648 12.4132 1.79221C10.0533 2.82777 7.92485 4.32582 6.15363 6.19785C-1.07208 13.8286 -0.615653 25.94 6.79649 33.3714L87.8929 114.455C89.0981 115.661 89.7751 117.295 89.7751 119C89.7751 120.705 89.0981 122.339 87.8929 123.545L6.52648 204.918C3.83016 207.615 1.99404 211.051 1.25024 214.792C0.506435 218.532 0.888343 222.409 2.34769 225.933C3.80704 229.456 6.27832 232.468 9.44908 234.587C12.6198 236.706 16.3477 237.838 20.1615 237.839Z" fill="url(#paint0_linear)"/>
<defs>
<linearGradient id="paint0_linear" x1="62508.1" y1="112445" x2="62508.1" y2="22284.3" gradientUnits="userSpaceOnUse">
<stop stop-color="#FF8600"/>
<stop offset="1" stop-color="#F9007D"/>
</linearGradient>
</defs>
</svg>
