<svg width="32" height="32" viewBox="0 0 32 32" fill="none" xmlns="http://www.w3.org/2000/svg">
<path fill-rule="evenodd" clip-rule="evenodd" d="M15.7451 2.837C19.9492 2.837 20.4471 2.85306 22.1076 2.92881C23.6427 2.99887 24.4763 3.25531 25.0312 3.47094C25.7151 3.72334 26.3337 4.12581 26.8416 4.64875C27.3645 5.15662 27.767 5.77524 28.0194 6.45912C28.235 7.01393 28.4915 7.84762 28.5615 9.38275C28.6373 11.0431 28.6533 11.541 28.6533 15.7452C28.6533 19.9495 28.6373 20.4473 28.5615 22.1077C28.4914 23.6429 28.2349 24.4765 28.0194 25.0314C27.7574 25.7104 27.3562 26.3271 26.8416 26.8418C26.3269 27.3564 25.7102 27.7576 25.0312 28.0196C24.4764 28.2352 23.6427 28.4917 22.1076 28.5617C20.4476 28.6374 19.9496 28.6535 15.7451 28.6535C11.5405 28.6535 11.0428 28.6374 9.38256 28.5617C7.84744 28.4916 7.01381 28.2351 6.45894 28.0196C5.77506 27.7671 5.15644 27.3647 4.64856 26.8417C4.12563 26.3339 3.72316 25.7152 3.47075 25.0314C3.25513 24.4766 2.99863 23.6429 2.92863 22.1077C2.85288 20.4475 2.83681 19.9495 2.83681 15.7452C2.83681 11.541 2.85288 11.0432 2.92863 9.38275C2.99869 7.84762 3.25513 7.014 3.47075 6.45912C3.72319 5.77521 4.1257 5.15657 4.64869 4.64869C5.15657 4.12575 5.77518 3.72328 6.45906 3.47087C7.01388 3.25525 7.84756 2.99875 9.38269 2.92875C11.043 2.853 11.5409 2.83694 15.7452 2.83694L15.7451 2.837ZM15.7451 0C11.4691 3.57628e-07 10.9327 0.0181257 9.25356 0.09475C7.57763 0.17125 6.43313 0.437375 5.43163 0.826625C4.38104 1.22198 3.42933 1.84174 2.64288 2.64269C1.84174 3.42909 1.22181 4.3808 0.826313 5.43144C0.437375 6.433 0.17125 7.5775 0.0950625 9.25343C0.018125 10.9326 0 11.4689 0 15.7451C0 20.0212 0.018125 20.5576 0.0950625 22.2367C0.171563 23.9126 0.437687 25.0571 0.826938 26.0586C1.22229 27.1092 1.84205 28.0609 2.643 28.8474C3.42946 29.6483 4.38116 30.2681 5.43175 30.6634C6.43331 31.0527 7.57781 31.3188 9.25369 31.3953C10.9331 31.4719 11.4693 31.49 15.7453 31.49C20.0214 31.49 20.5578 31.4719 22.2369 31.3953C23.9129 31.3188 25.0574 31.0527 26.0589 30.6634C27.1048 30.2589 28.0547 29.6403 28.8476 28.8474C29.6406 28.0544 30.2592 27.1045 30.6637 26.0586C31.0529 25.0571 31.3191 23.9126 31.3956 22.2367C31.4722 20.5573 31.4903 20.0211 31.4903 15.7451C31.4903 11.469 31.4722 10.9326 31.3956 9.25343C31.3191 7.5775 31.0529 6.433 30.6637 5.4315C30.2683 4.38091 29.6486 3.4292 28.8476 2.64275C28.0612 1.84164 27.1094 1.22175 26.0587 0.826312C25.0571 0.437375 23.9126 0.17125 22.2367 0.0950625C20.5576 0.018125 20.0212 0 15.7451 0ZM15.745 7.65974C14.1459 7.65974 12.5827 8.13394 11.2531 9.02236C9.92343 9.91079 8.88712 11.1735 8.27516 12.6509C7.6632 14.1283 7.50309 15.754 7.81506 17.3224C8.12703 18.8908 8.89708 20.3315 10.0278 21.4622C11.1586 22.593 12.5993 23.363 14.1676 23.675C15.736 23.987 17.3617 23.8269 18.8391 23.2149C20.3165 22.6029 21.5793 21.5666 22.4677 20.237C23.3561 18.9074 23.8303 17.3442 23.8303 15.7451C23.8303 13.6007 22.9785 11.5442 21.4622 10.0279C19.9459 8.51159 17.8894 7.65974 15.745 7.65974ZM15.745 20.9934C14.707 20.9933 13.6923 20.6855 12.8292 20.1088C11.9662 19.5321 11.2935 18.7125 10.8963 17.7534C10.499 16.7944 10.3951 15.7392 10.5976 14.7211C10.8001 13.7031 11.3 12.7679 12.034 12.0339C12.768 11.2999 13.7031 10.8001 14.7212 10.5976C15.7393 10.3951 16.7945 10.499 17.7535 10.8963C18.7125 11.2935 19.5322 11.9662 20.1089 12.8293C20.6856 13.6923 20.9934 14.707 20.9934 15.7451C20.9934 17.137 20.4404 18.4719 19.4562 19.4562C18.4719 20.4404 17.137 20.9934 15.745 20.9934ZM26.0392 7.3403C26.0392 8.38378 25.1933 9.22968 24.1498 9.22968C23.1063 9.22968 22.2604 8.38378 22.2604 7.3403C22.2604 6.29683 23.1063 5.45093 24.1498 5.45093C25.1933 5.45093 26.0392 6.29683 26.0392 7.3403Z" fill="white"/>
</svg>
