<svg viewBox="0 0 605 303" xmlns="http://www.w3.org/2000/svg">
    <defs>
        <radialGradient cx="50%" cy="26.2029892%" fx="50%" fy="26.2029892%" r="40.7383851%" id="radialGradient-1">
            <stop stop-color="#0E0036" offset="0%"></stop>
            <stop stop-color="#26006E" offset="100%"></stop>
        </radialGradient>
        <linearGradient x1="50%" y1="100%" x2="50%" y2="0%" id="linearGradient-2">
            <stop stop-color="#404040" offset="0%"></stop>
            <stop stop-color="#222222" offset="100%"></stop>
        </linearGradient>
        <linearGradient x1="50%" y1="0%" x2="50%" y2="100%" id="linearGradient-3">
            <stop stop-color="#FFFFFF" stop-opacity="0.4" offset="0%"></stop>
            <stop stop-color="#FFFFFF" stop-opacity="0" offset="100%"></stop>
        </linearGradient>
        <filter x="-11.7%" y="-500.0%" width="123.3%" height="1100.0%" filterUnits="objectBoundingBox" id="filter-4">
            <feGaussianBlur stdDeviation="20 0" in="SourceGraphic"></feGaussianBlur>
        </filter>
        <linearGradient x1="50%" y1="-5.55826823%" x2="50%" y2="130.485026%" id="linearGradient-5">
            <stop stop-color="#9B9DA3" offset="0%"></stop>
            <stop stop-color="#2E2F31" offset="100%"></stop>
        </linearGradient>
        <linearGradient x1="-0.769230769%" y1="50%" x2="100%" y2="50%" id="linearGradient-6">
            <stop stop-color="#7D7E80" offset="0%"></stop>
            <stop stop-color="#F2F3F3" offset="1.87375427%"></stop>
            <stop stop-color="#888A91" offset="5.40203049%"></stop>
            <stop stop-color="#D6D6D7" offset="13.1513656%"></stop>
            <stop stop-color="#E9EAEB" offset="24.6383667%"></stop>
            <stop stop-color="#F1F2F2" offset="100%"></stop>
        </linearGradient>
        <radialGradient cx="50%" cy="-10.5957031%" fx="50%" fy="-10.5957031%" r="642.901936%" gradientTransform="translate(0.500000,-0.105957),scale(0.081081,1.000000),scale(1.000000,0.299418),translate(-0.500000,0.105957)" id="radialGradient-7">
            <stop stop-color="#FBFBFB" offset="0%"></stop>
            <stop stop-color="#D7D8DB" offset="88.4987036%"></stop>
            <stop stop-color="#A8A8A8" offset="100%"></stop>
        </radialGradient>
    </defs>
    <g id="Page-1" stroke="none" stroke-width="1" fill="none" fill-rule="evenodd">
        <g id="Apple-devices" transform="translate(-654.000000, -625.000000)">
            <g id="MacBook-pro-15&quot;" transform="translate(699.000000, 625.000000)">
                <g id="Screen" transform="translate(47.000000, 0.000000)">
                    <path d="M13.0013142,0 C5.82088666,0 0,5.82524022 0,13.0008828 L0,277.000712 C0,279.761743 2.23448333,282 5.00938743,282 L414.990613,282 C417.757221,282 420,279.771147 420,277.000712 L420,13.0008828 C420,5.82069352 414.182818,0 406.998686,0 L13.0013142,0 Z" id="blackglass-2" fill="#010000"></path>
                    <circle id="camera-2" stroke="url(#linearGradient-2)" fill="url(#radialGradient-1)" cx="211.5" cy="7.5" r="2.5"></circle>
                    <rect id="pixels-2" fill="#FFFFFF" x="14" y="16" width="393" height="245"></rect>
                </g>
                <g id="Body" transform="translate(0.000000, 280.000000)">
                    <ellipse id="shadow" fill-opacity="0.249999985" fill="#000000" filter="url(#filter-4)" cx="257.5" cy="17" rx="257.5" ry="6"></ellipse>
                    <path d="M14.7431164,15.4368817 C8.25601313,15.4368817 0,11.7486095 0,10 L515,10 C515,11.7486095 506.743987,15.4368817 500.256884,15.4368817 L14.7431164,15.4368817 Z" id="bottom" fill="url(#linearGradient-5)"></path>
                    <g id="front">
                        <g id="Rectangle-8" fill="url(#linearGradient-6)">
                            <rect x="0" y="0" width="260" height="10"></rect>
                        </g>
                        <g id="Rectangle-8" transform="translate(385.000000, 5.000000) rotate(-180.000000) translate(-385.000000, -5.000000) translate(255.000000, 0.000000)" fill="url(#linearGradient-6)">
                            <rect x="0" y="0" width="260" height="10"></rect>
                        </g>
                        <path d="M228.739212,6 L287.757653,6 C291.480982,6 294.609537,3.44823998 295.49665,0 L221,0 C221.887052,3.45037624 225.017052,6 228.739212,6 Z" id="Grip" fill="url(#radialGradient-7)"></path>
                    </g>
                </g>
            </g>
        </g>
    </g>
</svg>