<svg id="Layer_1" data-name="Layer 1" xmlns="http://www.w3.org/2000/svg" xmlns:xlink="http://www.w3.org/1999/xlink" viewBox="0 0 560 560"><defs><linearGradient id="linear-gradient" x1="280" y1="361" x2="280" y2="243.15" gradientUnits="userSpaceOnUse"><stop offset="0" stop-color="#1a00ff"/><stop offset="1" stop-color="#f9007d"/></linearGradient><linearGradient id="linear-gradient-3" x1="72.08" y1="361" x2="72.08" y2="243.15" xlink:href="#linear-gradient"/><linearGradient id="linear-gradient-4" x1="487.92" y1="361" x2="487.92" y2="243.15" xlink:href="#linear-gradient"/><linearGradient id="linear-gradient-5" x1="132.98" y1="361" x2="132.98" y2="243.15" xlink:href="#linear-gradient"/><linearGradient id="linear-gradient-6" x1="427.02" y1="361" x2="427.02" y2="243.15" xlink:href="#linear-gradient"/></defs><title>03_2</title><path d="M280,0a25.18,25.18,0,0,0-25.18,25.18V119a25.18,25.18,0,0,0,50.36,0V25.18A25.18,25.18,0,0,0,280,0Z" style="fill:url(#linear-gradient)"/><path d="M280,415.84A25.18,25.18,0,0,0,254.82,441v93.8a25.18,25.18,0,0,0,50.36,0V441A25.18,25.18,0,0,0,280,415.84Z" style="fill:url(#linear-gradient)"/><path d="M144.16,280A25.18,25.18,0,0,0,119,254.82H25.18a25.18,25.18,0,0,0,0,50.36H119A25.18,25.18,0,0,0,144.16,280Z" style="fill:url(#linear-gradient-3)"/><path d="M534.82,254.82H441a25.18,25.18,0,0,0,0,50.36h93.8a25.18,25.18,0,0,0,0-50.36Z" style="fill:url(#linear-gradient-4)"/><path d="M117.62,82A25.18,25.18,0,1,0,82,117.62L148.34,184A25.18,25.18,0,0,0,184,148.34Z" style="fill:url(#linear-gradient-5)"/><path d="M411.66,376.05a25.18,25.18,0,0,0-35.61,35.61L442.38,478A25.18,25.18,0,0,0,478,442.38Z" style="fill:url(#linear-gradient-6)"/><path d="M148.34,376.05,82,442.38A25.18,25.18,0,1,0,117.62,478L184,411.66a25.18,25.18,0,0,0-35.61-35.61Z" style="fill:url(#linear-gradient-5)"/><path d="M393.86,191.32a25.11,25.11,0,0,0,17.8-7.37L478,117.62A25.18,25.18,0,1,0,442.38,82l-66.33,66.33a25.18,25.18,0,0,0,17.81,43Z" style="fill:url(#linear-gradient-6)"/></svg>