<svg width="140" height="140" viewBox="0 0 140 140" fill="none" xmlns="http://www.w3.org/2000/svg">
<g opacity="0.1">
<g clip-path="url(#clip0)">
<path d="M70 36.04C68.3313 36.04 66.7309 35.3775 65.5505 34.198C64.3701 33.0185 63.7063 31.4187 63.705 29.75V6.295C63.705 4.62546 64.3682 3.0243 65.5488 1.84376C66.7293 0.663221 68.3305 0 70 0C71.6696 0 73.2707 0.663221 74.4513 1.84376C75.6318 3.0243 76.295 4.62546 76.295 6.295V29.75C76.2937 31.4187 75.6299 33.0185 74.4495 34.198C73.2691 35.3775 71.6687 36.04 70 36.04Z" fill="url(#paint0_linear)"/>
<path d="M70 140C68.3305 140 66.7293 139.337 65.5488 138.156C64.3682 136.976 63.705 135.374 63.705 133.705V110.25C63.705 108.58 64.3682 106.979 65.5488 105.799C66.7293 104.618 68.3305 103.955 70 103.955C71.6695 103.955 73.2707 104.618 74.4512 105.799C75.6318 106.979 76.295 108.58 76.295 110.25V133.7C76.2957 134.527 76.1333 135.346 75.8173 136.11C75.5012 136.875 75.0376 137.569 74.453 138.154C73.8684 138.739 73.1742 139.204 72.4102 139.52C71.6461 139.837 70.8271 140 70 140Z" fill="url(#paint1_linear)"/>
<path d="M29.75 76.295H6.295C4.62546 76.295 3.0243 75.6318 1.84376 74.4513C0.663221 73.2707 0 71.6696 0 70C0 68.3305 0.663221 66.7293 1.84376 65.5488C3.0243 64.3682 4.62546 63.705 6.295 63.705H29.75C31.4195 63.705 33.0207 64.3682 34.2012 65.5488C35.3818 66.7293 36.045 68.3305 36.045 70C36.045 71.6696 35.3818 73.2707 34.2012 74.4513C33.0207 75.6318 31.4195 76.295 29.75 76.295Z" fill="url(#paint2_linear)"/>
<path d="M133.705 76.295H110.25C108.58 76.295 106.979 75.6318 105.799 74.4513C104.618 73.2707 103.955 71.6696 103.955 70C103.955 68.3305 104.618 66.7293 105.799 65.5488C106.979 64.3682 108.58 63.705 110.25 63.705H133.7C135.37 63.705 136.971 64.3682 138.151 65.5488C139.332 66.7293 139.995 68.3305 139.995 70C139.995 71.6696 139.332 73.2707 138.151 74.4513C136.971 75.6318 135.37 76.295 133.7 76.295H133.705Z" fill="url(#paint3_linear)"/>
<path d="M41.535 47.83C40.7085 47.8309 39.8899 47.6687 39.1262 47.3525C38.3626 47.0363 37.6689 46.5724 37.085 45.9875L20.5 29.405C19.9153 28.8203 19.4515 28.1261 19.135 27.3622C18.8186 26.5982 18.6557 25.7794 18.6557 24.9525C18.6557 24.1256 18.8186 23.3068 19.135 22.5428C19.4515 21.7788 19.9153 21.0847 20.5 20.5C21.0847 19.9153 21.7788 19.4515 22.5428 19.135C23.3068 18.8186 24.1256 18.6557 24.9525 18.6557C25.7794 18.6557 26.5982 18.8186 27.3622 19.135C28.1261 19.4515 28.8203 19.9153 29.405 20.5L46 37.085C46.8817 37.9652 47.4824 39.0873 47.726 40.3092C47.9696 41.5311 47.8452 42.7978 47.3684 43.9488C46.8916 45.0999 46.084 46.0837 45.0478 46.7754C44.0116 47.4672 42.7934 47.836 41.5475 47.835L41.535 47.83Z" fill="url(#paint4_linear)"/>
<path d="M24.9525 121.343C23.7073 121.342 22.4903 120.972 21.4553 120.28C20.4202 119.588 19.6136 118.604 19.1373 117.454C18.6611 116.303 18.5366 115.037 18.7796 113.816C19.0226 112.595 19.6221 111.473 20.5025 110.593L37.085 94.01C38.2659 92.8278 39.868 92.1631 41.539 92.1622C43.2099 92.1613 44.8128 92.8241 45.995 94.005C47.1772 95.1859 47.8419 96.788 47.8428 98.459C47.8438 100.13 47.1809 101.733 46 102.915L29.405 119.5C28.8209 120.085 28.1268 120.55 27.3627 120.866C26.5985 121.182 25.7795 121.344 24.9525 121.343Z" fill="url(#paint5_linear)"/>
<path d="M98.465 47.83C97.2191 47.831 96.0009 47.4622 94.9647 46.7705C93.9285 46.0787 93.1209 45.0949 92.6441 43.9439C92.1673 42.7928 92.0429 41.5261 92.2865 40.3042C92.5301 39.0823 93.1308 37.9602 94.0125 37.08L110.595 20.5C111.776 19.3191 113.377 18.6557 115.048 18.6557C116.718 18.6557 118.319 19.3191 119.5 20.5C120.681 21.6809 121.344 23.2825 121.344 24.9525C121.344 26.6225 120.681 28.2241 119.5 29.405L102.915 46C102.33 46.5827 101.636 47.0443 100.872 47.3583C100.109 47.6723 99.2906 47.8326 98.465 47.83Z" fill="url(#paint6_linear)"/>
</g>
</g>
<defs>
<linearGradient id="paint0_linear" x1="63.5039" y1="10.3551" x2="81.3529" y2="12.2666" gradientUnits="userSpaceOnUse">
<stop stop-color="#FC466B"/>
<stop offset="1" stop-color="#3F5EFB"/>
</linearGradient>
<linearGradient id="paint1_linear" x1="63.5039" y1="114.311" x2="81.3529" y2="116.223" gradientUnits="userSpaceOnUse">
<stop stop-color="#FC466B"/>
<stop offset="1" stop-color="#3F5EFB"/>
</linearGradient>
<linearGradient id="paint2_linear" x1="-0.575719" y1="67.3224" x2="28.6204" y2="92.9478" gradientUnits="userSpaceOnUse">
<stop stop-color="#FC466B"/>
<stop offset="1" stop-color="#3F5EFB"/>
</linearGradient>
<linearGradient id="paint3_linear" x1="103.379" y1="67.3224" x2="132.575" y2="92.9438" gradientUnits="userSpaceOnUse">
<stop stop-color="#FC466B"/>
<stop offset="1" stop-color="#3F5EFB"/>
</linearGradient>
<linearGradient id="paint4_linear" x1="18.1894" y1="27.0396" x2="56.4506" y2="38.7742" gradientUnits="userSpaceOnUse">
<stop stop-color="#FC466B"/>
<stop offset="1" stop-color="#3F5EFB"/>
</linearGradient>
<linearGradient id="paint5_linear" x1="18.1924" y1="100.546" x2="56.4457" y2="112.275" gradientUnits="userSpaceOnUse">
<stop stop-color="#FC466B"/>
<stop offset="1" stop-color="#3F5EFB"/>
</linearGradient>
<linearGradient id="paint6_linear" x1="91.6989" y1="27.0381" x2="129.945" y2="38.7653" gradientUnits="userSpaceOnUse">
<stop stop-color="#FC466B"/>
<stop offset="1" stop-color="#3F5EFB"/>
</linearGradient>
<clipPath id="clip0">
<rect width="140" height="140" fill="white"/>
</clipPath>
</defs>
</svg>
