<svg xmlns="http://www.w3.org/2000/svg" viewBox="0 0 2100 2100"><g><path d="M1898.48,2020.48c-58.52-78.07-136-135.14-190.62-169.26-46.86-29.25-84.77-46.85-99.43-53.28a15.09,15.09,0,0,0-5.23-3.07l-125.48-42.42c57.7,5.32,105.93,2.79,150.19-5.27,233.49-42.54,232.73-185.22,197.43-468.68C1735.07,553.77,1703.67,350,1499,286.83c-45.19-101.17-204.36-231.31-449-231.31-364.51,0-660,262.14-660,585.5q0,3.91.06,7.8l-.15,0s-4.68,319.37-115.8,629.65c-111.74,312,66.8,446.61,272.12,467.34a596.16,596.16,0,0,0,88,2.59l-131.09,44.31a17.92,17.92,0,0,0-4.27,2.12l-.78.32c-1.88.76-46.78,19.12-105.92,56-54.66,34.12-132.1,91.19-190.62,169.26a15,15,0,0,0,24,18c55.59-74.17,129.62-128.74,181.94-161.46a791.86,791.86,0,0,1,95-51.07c81.1,36.34,169.66,63.72,263.23,81.39,88.66,16.74,184.32,25.23,284.3,25.23s195.64-8.49,284.3-25.23c93.57-17.67,182.13-45,263.23-81.39a791.86,791.86,0,0,1,95,51.07c52.32,32.72,126.35,87.29,181.94,161.46a15,15,0,1,0,24-18ZM612.78,1227.41c-27.34-59.47-43.63-121.41-48.4-184.07l-24-315.56A406.85,406.85,0,0,1,540,669.9a1312.21,1312.21,0,0,0,569.07-148.21q-38.38,25.38-79,47.42a1060.16,1060.16,0,0,1-155.35,68.83,1066,1066,0,0,1-165,43.29h0a8.79,8.79,0,0,0,2.7,17.36,1087.3,1087.3,0,0,0,170.22-36.22,1089.76,1089.76,0,0,0,162.85-63.2,1105,1105,0,0,0,249-165.38c70,126.59,162.58,243.86,264.27,340.72l-23.11,272.91c-5.27,62.26-21.9,123.74-49.43,182.71a567.19,567.19,0,0,1-107,155.53c-1.53,1.58-3.07,3.14-4.61,4.7-.51.5-1,1-1.52,1.51l-3.15,3.12-1.8,1.75-2.91,2.83-1.9,1.81c-1,.9-1.91,1.81-2.87,2.7-.64.61-1.29,1.21-1.93,1.8-1,.9-1.93,1.79-2.9,2.67l-1.91,1.74c-1,.91-2,1.81-3,2.7l-1.81,1.62-3.28,2.86-1.58,1.38-3.88,3.31-1,.85q-5,4.23-10.11,8.3l-.75.6q-2.15,1.69-4.3,3.38l-1.23,1c-1.29,1-2.58,2-3.88,3l-1.38,1-3.78,2.82c-.47.35-.94.7-1.42,1-1.28.94-2.56,1.88-3.85,2.8l-1.31,1-4.09,2.89-1.09.76q-2.29,1.6-4.59,3.16l-.6.41q-10.8,7.32-21.84,14l-.13.08q-2.65,1.61-5.31,3.16l-.48.27q-2.52,1.47-5,2.91l-.56.32c-1.69,1-3.38,1.9-5.07,2.83l-.47.26c-1.78,1-3.57,1.94-5.36,2.89l-.16.09q-19.85,10.55-40.34,19l0,0q-2.91,1.2-5.85,2.36c-50.17,19.89-102.77,30.26-155.93,30.26h0a422.94,422.94,0,0,1-156.9-30.58q-3-1.17-5.9-2.39h0q-20.57-8.54-40.52-19.19l-.17-.09q-2.68-1.44-5.37-2.92l-.47-.26q-2.55-1.41-5.1-2.86l-.54-.31c-1.71-1-3.41-2-5.1-3l-.44-.26q-2.71-1.59-5.41-3.23l0,0q-11.09-6.72-21.91-14.1l-.65-.44-4.56-3.16L796,1450l-4.08-2.9-1.33-1c-1.29-.93-2.57-1.87-3.86-2.82l-1.42-1-3.78-2.85-1.4-1.06-3.88-3-1.24-1-4.34-3.44-.71-.57q-5.11-4.11-10.14-8.37l-1.07-.91c-1.28-1.1-2.56-2.19-3.83-3.3l-1.62-1.41-3.25-2.86-1.83-1.65c-1-.9-2-1.8-3-2.72l-1.92-1.76-2.89-2.68-2-1.83-2.86-2.71-1.91-1.84c-1-.94-1.94-1.89-2.91-2.84l-1.81-1.78q-1.59-1.56-3.15-3.15l-1.53-1.52c-1.54-1.57-3.09-3.15-4.62-4.74A566.73,566.73,0,0,1,612.78,1227.41Zm716,650.44c-86.83,16.4-180.61,24.71-278.73,24.71s-191.9-8.31-278.73-24.71c-80.41-15.18-157-37.69-228-67l291.65-98.59a15,15,0,0,0,9.54-9.85l0-.07q.13-.46.24-.93c0-.06,0-.11,0-.17.08-.36.15-.72.2-1.09l24.67-174.51q3.6,1.56,7.22,3l1.82.75c2.41,1,4.82,1.95,7.24,2.89h0c2.42.94,4.86,1.85,7.29,2.76l1.82.66a446.33,446.33,0,0,0,301.94,2.9h0q4-1.38,7.93-2.82l1.1-.4q3.87-1.43,7.73-2.91h0c2.51-1,5-2,7.53-3l1.65-.67q3.72-1.53,7.42-3.12L1255,1700.14c0,.33.11.66.18,1a3.59,3.59,0,0,0,.08.35l.15.61c0,.15.09.29.13.43l.17.5c0,.16.11.31.17.47l.17.42c.08.17.15.34.23.5s.11.24.17.36l.27.52.17.29.33.55.14.2a15,15,0,0,0,7.69,5.93l291.65,98.58C1485.68,1840.16,1409.13,1862.67,1328.73,1877.85Z" style="fill:#281104"/><path d="M539.15,699.57c0,1.89,0,3.78.08,5.67,0,.31,0,.62,0,.92,0,2.18.12,4.35.21,6.53,0,.55,0,1.1.07,1.64.07,1.69.16,3.37.25,5.06,0,.62.07,1.24.11,1.86.13,2.17.27,4.35.44,6.53l24,315.56c4.77,62.66,21.06,124.6,48.4,184.07a566.73,566.73,0,0,0,106.84,156.86c92.73,96.24,210.12,149.25,330.55,149.25h0c119.64,0,236.5-52.51,329-147.86a567.19,567.19,0,0,0,107-155.53c27.53-59,44.16-120.45,49.43-182.71l23.11-272.91c-101.69-96.86-194.24-214.13-264.27-340.72a1105,1105,0,0,1-249,165.38,1089.76,1089.76,0,0,1-162.85,63.2,1087.3,1087.3,0,0,1-170.22,36.22,8.79,8.79,0,0,1-2.7-17.36h0a1066,1066,0,0,0,165-43.29,1060.16,1060.16,0,0,0,155.35-68.83q40.55-22,79-47.42A1312.21,1312.21,0,0,1,540,669.9c-.15,2.17-.27,4.34-.38,6.51,0,.51,0,1-.07,1.54-.08,1.82-.16,3.65-.22,5.48,0,.4,0,.8,0,1.2q-.09,3.3-.14,6.61c0,.34,0,.69,0,1,0,1.85,0,3.7,0,5.55C539.15,698.4,539.15,699,539.15,699.57Z" style="fill:#ffe7d7"/><path d="M558.34,1281.06a99.43,99.43,0,0,0,42.8-9.63q-7-13.23-13.42-26.85a70,70,0,1,1-44-132q-3-14.74-5.14-29.58a100,100,0,0,0,19.72,198Z" style="fill:#fbb03b"/><path d="M1556.54,1112.67a70,70,0,1,1-44,132q-6.4,13.62-13.46,26.83a100,100,0,1,0,62.66-188.43Q1559.53,1097.92,1556.54,1112.67Z" style="fill:#fbb03b"/><polygon points="1556.74 1810.84 1481.98 1785.56 1481.98 1785.56 1556.74 1810.84" style="fill:#fff"/><path d="M1692.53,1877a791.86,791.86,0,0,0-95-51.07c-81.1,36.34-169.66,63.72-263.23,81.39-88.66,16.74-184.32,25.23-284.3,25.23s-195.64-8.49-284.3-25.23c-93.57-17.67-182.13-45-263.23-81.39a791.86,791.86,0,0,0-95,51.07c-50.17,31.38-120.32,82.87-175,152.47h1635.1C1812.85,1959.88,1742.7,1908.39,1692.53,1877Z" style="fill:#f2f2f2"/><path d="M1564.24,1063.2A119.66,119.66,0,0,1,1622,1092a118,118,0,0,0-44.21-186.68L1565.53,1050Q1565,1056.58,1564.24,1063.2Z" style="fill:#ffe7d7"/><path d="M536.11,1063.14q-1-8.76-1.65-17.52L523.72,904.71A118,118,0,0,0,478,1092,119.69,119.69,0,0,1,536.11,1063.14Z" style="fill:#efd6c5"/><path d="M709.75,681.23h0a1066,1066,0,0,0,165-43.29,1060.16,1060.16,0,0,0,155.35-68.83q40.55-22,79-47.42A1312.21,1312.21,0,0,1,540,669.9a406.85,406.85,0,0,0,.31,57.88l24,315.56c4.77,62.66,21.06,124.6,48.4,184.07a566.73,566.73,0,0,0,106.84,156.86c1.53,1.59,3.08,3.17,4.62,4.74l1.53,1.52q1.56,1.59,3.15,3.15l1.81,1.78c1,1,1.93,1.9,2.91,2.84l1.91,1.84,2.86,2.71,2,1.83,2.89,2.68,1.92,1.76c1,.92,2,1.82,3,2.72l1.83,1.65,3.25,2.86,1.62,1.41c1.27,1.11,2.55,2.2,3.83,3.3l1.07.91q5,4.26,10.14,8.37l.71.57,4.34,3.44,1.24,1,3.88,3,1.4,1.06,3.78,2.85,1.42,1c1.29,1,2.57,1.89,3.86,2.82l1.33,1L796,1450l1.12.79,4.56,3.16.65.44q10.82,7.38,21.91,14.1l0,0q2.7,1.63,5.41,3.23l.44.26c1.69,1,3.39,2,5.1,3l.54.31q2.55,1.45,5.1,2.86l.47.26q2.69,1.49,5.37,2.92l.17.09q19.93,10.65,40.52,19.19h0q2.94,1.21,5.9,2.39a428.94,428.94,0,0,0,109.9,27.88c-205.32-60.33-362-266.44-378.75-486.34L610.61,863.23a88.53,88.53,0,0,1,77-94.41c243.09-32,457.33-155.44,607.08-334.66-.06-.13-.13-.25-.2-.37a1105,1105,0,0,1-249,165.38,1089.76,1089.76,0,0,1-162.85,63.2,1087.3,1087.3,0,0,1-170.22,36.22,8.79,8.79,0,0,1-2.7-17.36Z" style="fill:#efd6c5"/><path d="M785.41,890.38h0a101.5,101.5,0,0,0-101.5,101.5h0A29.16,29.16,0,0,0,713.07,1021H857.75a29.15,29.15,0,0,0,29.16-29.16h0A101.5,101.5,0,0,0,785.41,890.38Zm-28.84,70.08a5.06,5.06,0,1,1-10.12,0,5.24,5.24,0,0,1,.13-1.14,23.22,23.22,0,1,1,5.08-3.92A5.06,5.06,0,0,1,756.57,960.46Z" style="fill:#281104"/><path d="M751.66,955.4a23.1,23.1,0,1,0-5.08,3.92,5.24,5.24,0,0,0-.13,1.14,5.06,5.06,0,1,0,5.21-5.06Z" style="fill:#fff"/><path d="M880.91,833.5c0,23.06-23.61,9.56-75.37,9.56-140.63,0-176.63,30.64-176.63,12.94s69-59.07,154.13-59.07S880.91,815.79,880.91,833.5Z" style="fill:#281104"/><path d="M1322.41,890.38h0a101.5,101.5,0,0,0-101.5,101.5h0a29.16,29.16,0,0,0,29.16,29.16h144.68a29.15,29.15,0,0,0,29.16-29.16h0A101.5,101.5,0,0,0,1322.41,890.38Zm-27.84,70.08a5.06,5.06,0,1,1-10.12,0,5.24,5.24,0,0,1,.13-1.14,23.22,23.22,0,1,1,5.08-3.92A5.06,5.06,0,0,1,1294.57,960.46Z" style="fill:#281104"/><path d="M1289.66,955.4a23.1,23.1,0,1,0-5.08,3.92,5.24,5.24,0,0,0-.13,1.14,5.06,5.06,0,1,0,5.21-5.06Z" style="fill:#fff"/><path d="M1225.91,833.5c0,23.06,23.61,9.56,75.38,9.56,140.62,0,176.62,30.64,176.62,12.94s-69-59.07-154.12-59.07S1225.91,815.79,1225.91,833.5Z" style="fill:#281104"/><path d="M1218,1272a22.47,22.47,0,0,0-16.67-.59c-.39.14-.77.28-1.14.44-13.33,5.62-27.91,7.64-42.07,4.68-37.59-7.86-88.88-9.79-104,14.08a4.87,4.87,0,0,1-8.26,0c-15.09-23.87-66.38-21.94-104-14.08-14.16,3-28.74.94-42.07-4.68-.37-.16-.75-.3-1.14-.44A22.47,22.47,0,0,0,882,1272a8.6,8.6,0,0,0-1.8,14.7l32.3,24.75A255.39,255.39,0,0,0,955.19,1338c29.71,14.63,61.86,28.82,94.81,28.89s65.1-14.26,94.81-28.89a255.39,255.39,0,0,0,42.67-26.56l32.3-24.75A8.6,8.6,0,0,0,1218,1272Z" style="fill:#ff7bac"/><path d="M1130.38,1123.57a36.9,36.9,0,0,0-9.29,1.19,72.46,72.46,0,0,0-126.35,0,36.7,36.7,0,0,0-46,35.49h218.29A36.69,36.69,0,0,0,1130.38,1123.57Z" style="fill:#efd4c5"/><path d="M1067.91,1069.47V955a10,10,0,0,0-20,0v114.45c3.3-.29,6.63-.45,10-.45S1064.62,1069.18,1067.91,1069.47Z" style="fill:#efd4c5"/><path d="M1265.09,1712.25a15,15,0,0,1-10-12.11l-24.65-174.4c-2.52,3.46-71.06,95.14-279.48,124.09l-211.69,221.5a1149.43,1149.43,0,0,1-195.87-60.5L835,1712.25a15,15,0,0,0,10-12.11l24.66-174.44c57.57,24.83,118.5,37.82,180.2,37.82h.13c-61.83,0-122.82-13-180.42-37.89L845,1700.14a15,15,0,0,1-10.05,12.11l-291.65,98.59c71,29.32,147.6,51.83,228,67,86.83,16.4,180.61,24.71,278.73,24.71s191.9-8.31,278.73-24.71c80.4-15.18,157-37.69,228-67Z" style="fill:#ffe7d7"/><path d="M950.91,1649.83l-211.69,221.5a1149.43,1149.43,0,0,1-195.87-60.5L835,1712.25a15,15,0,0,0,10-12.11l24.66-174.44c57.57,24.83,118.5,37.82,180.2,37.82,61.87,0,122.9-13,180.55-37.89C1230.47,1525.63,1163.35,1620.33,950.91,1649.83Z" style="fill:#efd6c5"/></g></svg>