<svg width="168" height="373" viewBox="0 0 168 373" fill="none" xmlns="http://www.w3.org/2000/svg">
<path d="M125.99 7.97959L1.01648 361.741C0.591025 362.945 0.460444 364.233 0.635701 365.497C0.810958 366.761 1.28694 367.965 2.02369 369.007C2.76044 370.049 3.73647 370.9 4.86984 371.487C6.00322 372.074 7.26087 372.38 8.53724 372.381H31.1062C33.5847 372.385 36.0034 371.619 38.0283 370.19C40.0532 368.761 41.5844 366.738 42.4106 364.401L167.364 10.6394C167.79 9.43608 167.92 8.1482 167.745 6.88392C167.57 5.61964 167.094 4.41584 166.357 3.37358C165.62 2.33131 164.644 1.48099 163.511 0.893975C162.377 0.306963 161.12 0.00039443 159.843 0L137.275 0C134.799 7.73827e-05 132.385 0.767477 130.364 2.19653C128.343 3.62558 126.815 5.646 125.99 7.97959Z" fill="url(#paint0_linear)"/>
<defs>
<linearGradient id="paint0_linear" x1="-13.7848" y1="468.785" x2="265.064" y2="416.645" gradientUnits="userSpaceOnUse">
<stop stop-color="#F7FF00"/>
<stop offset="1" stop-color="#DB36A4"/>
</linearGradient>
</defs>
</svg>
